<?xml version="1.0" standalone="no"?>
<!DOCTYPE svg PUBLIC "-//W3C//DTD SVG 1.1//EN" "http://www.w3.org/Graphics/SVG/1.1/DTD/svg11.dtd" >
<svg xmlns="http://www.w3.org/2000/svg">
<metadata>Generated by IcoMoon</metadata>
<defs>
<font id="kanem" horiz-adv-x="1024">
<font-face units-per-em="1024" ascent="960" descent="-64" />
<missing-glyph horiz-adv-x="1024" />
<glyph unicode="&#x20;" horiz-adv-x="512" d="" />
<glyph unicode="&#xe900;" glyph-name="headphones1" d="M768 64v64h-0.8c0.288 5.312 0.8 10.592 0.8 16v352c0 150.208-121.792 272-272 272s-272-121.792-272-272v-352c0-5.408 0.512-10.688 0.8-16h-0.8v-64c0 0-160 2.688-160 176 0 98.304 51.424 141.664 96 160.8v95.2c0 185.568 150.432 336 336 336s336-150.432 336-336v-95.2c44.576-19.168 96-62.496 96-160.8 0-173.312-160-176-160-176zM288 64h-32v352h32v-352zM736 64h-32v352h32v-352z" />
<glyph unicode="&#xe901;" glyph-name="folder" horiz-adv-x="1118" d="M269.792 667.040h670.656c69.056 0 69.056 71.616 2.688 71.616h-463.552c-26.56 0-39.808 39.808-39.808 39.808s-18.592 58.4-55.776 58.4h-345.248c-50.432 0-37.184-58.4-37.184-58.4s77.024-655.040 82.336-694.88 46.496-51.584 46.496-51.584l90.272 579.296c6.656 42.464 35.84 54.4 49.12 55.744zM1077.056 641.856h-786.016c-23.456 0-42.496-19.008-42.496-42.464l-82.304-524.8c0-23.488 19.040-42.496 42.496-42.496h786.016c23.424 0 42.496 19.008 42.496 42.496l82.304 524.8c0 23.456-18.976 42.464-42.496 42.464z" />
<glyph unicode="&#xe902;" glyph-name="alarm" d="M864.416 151.104v-58.4h-704.832v58.4c0 0-15.072 32.288 66.72 109.728 81.728 77.408 70.976 277.504 70.976 413.024s190.336 138.4 190.336 138.4h6.528c0-0.064 0 0.928 0 22.016 0 13.536-45.44 62.56-45.44 62.56l-0.672 29.664h128.32l-0.864-30.784c0 0-49.248-48.992-49.248-63.424 0-13.952 0-18.624 0-20h10.144c0 0 190.336-2.88 190.336-138.4s-10.752-335.648 71.008-413.088 66.688-109.696 66.688-109.696zM592.384 61.76c0-44.32-35.904-92.256-80.192-92.256s-80.192 47.936-80.192 92.256c0-0.992 160.384 1.024 160.384 0z" />
<glyph unicode="&#xe903;" glyph-name="volume" horiz-adv-x="1144" d="M757.44 621.344l-31.68-64.608c30.304-25.984 49.504-64.544 49.504-107.552 0-47.424-10.752-90.304-46.496-116.032l30.624-54.624c46.752 41.952 76.192 102.816 76.192 170.592-0.032 68.64-30.272 130.272-78.144 172.224zM992.576 847.584l-44.576-54.080c83.136-90.752 135.744-211.68 135.744-344.448 0-132.544-52.512-253.312-135.36-344.032l44.512-55.2c94.816 106.752 152.256 244.736 152.256 399.232-0.032 154.080-58.208 291.84-152.576 398.528zM874.304 737.088l-39.68-57.056c58.944-59.2 96.32-140.8 96.32-230.944 0-91.968-38.88-175.008-99.936-234.528l41.248-54.752c73.76 75.328 118.176 175.488 118.176 289.248 0 111.648-44.736 213.056-116.128 288.032zM0 575.776v-258.88c0-32.992 28.672-75.328 64-75.328h192.864v414.048h-192.864c-35.328 0-64-46.88-64-79.84zM554.912 844.192l-268.192-184.864v-424l268.192-186.88c35.328 0 86.016 26.752 86.016 59.744v676.256c0 32.992-50.688 59.744-86.016 59.744z" />
<glyph unicode="&#xe904;" glyph-name="envelope" d="M512.48 356.448l-130.304 106.976-283.584-334.816h828.032l-283.616 338.144-130.528-110.304zM957.632 767.392h-890.080l445.056-374.336 445.024 374.336zM662.56 483.616l297.312-354.688v606.464l-297.312-251.776zM64.128 735.392v-606.464l297.312 354.688-297.312 251.776z" />
<glyph unicode="&#xe905;" glyph-name="envelope1" d="M644.448 354.112l313.184 255.968-445.632 314.656-444.48-314.656 314.368-257.024 262.56 1.056zM395.52 322.048l-296.928-350.784h828.032l-299.616 348.8-231.488 1.984zM662.56 326.304l297.312-354.688v606.464l-297.312-251.776zM64.128 578.080v-606.464l297.312 354.688-297.312 251.776z" />
<glyph unicode="&#xe906;" glyph-name="volume4" d="M815.787 874.667v-853.333l-320 266.24h-287.616v320.853h287.616z" />
<glyph unicode="&#xe907;" glyph-name="tmw" d="M488.143 892.237c-62.432-2.648-129.736-22.853-184.249-55.721l77.266-122.585c201.723 90.925 390.121-22.765 424.219-268.202l141.159 4.458c10.051 77.485-41.594 191.368-103.269 275.631-94.085-27.701-210.737 34.095-251.857 151.56-29.978 11.645-65.81 16.447-103.269 14.859zM269.718 819.428c-72.848-28.25-147.942-128.408-192.422-222.882 69.343-69.36 70.839-201.891-12.63-294.205 10.984-85.055 85.193-181.115 173.105-232.541l70.579 127.043c-176.363 133.624-166.511 353.361 32.689 500.742l-71.322 121.842zM497.801 698.329c-141.148 0-255.572-114.423-255.572-255.572s114.423-255.572 255.572-255.572c141.148 0 255.572 114.423 255.572 255.572s-114.423 255.572-255.572 255.572zM459.168 642.609c21.869-0.012 38.962-9.519 46.062-28.232 14.201-37.425-16.551-97.825-69.094-135.215s-106.898-37.425-121.099 0c-14.201 37.425 16.551 97.825 69.094 135.215 26.271 18.695 53.168 28.243 75.037 28.232zM936.136 416.754l-145.616-5.944c-21.558-220.215-213.696-327.374-443.536-234.769l-66.122-124.071c62.199-47.289 185.965-59.092 289.747-47.548 22.81 95.389 134.711 165.455 257.058 142.645 66.727 53.874 110.66 167.862 108.469 269.688z" />
<glyph unicode="&#xe908;" glyph-name="nm-signal-100" d="M512 744.438c-182.008 0-346.801-74.080-466.162-193.441-1.976-1.912-3.171-4.227-3.171-6.977s1.195-5.699 3.171-7.611l65.326-65.326c1.912-1.976 4.861-3.171 7.611-3.171s5.065 1.195 6.977 3.171c98.934 98.934 235.35 160.461 386.249 160.461s287.315-61.527 386.249-160.461c1.912-1.976 4.227-3.171 6.977-3.171s5.699 1.195 7.611 3.171l65.326 65.326c1.976 1.912 3.171 4.861 3.171 7.611s-1.195 5.065-3.171 6.977c-119.361 119.361-284.154 193.441-466.162 193.441zM512 558.607c-130.799 0-249.107-53.128-334.876-138.897-1.976-1.912-3.171-4.861-3.171-7.611s1.195-5.065 3.171-6.977l65.326-65.326c1.912-1.976 4.227-3.171 6.977-3.171s5.699 1.195 7.611 3.171c65.348 65.348 155.278 105.917 254.962 105.917s189.614-40.569 254.962-105.917c1.912-1.976 4.861-3.171 7.611-3.171s5.065 1.195 6.977 3.171l65.326 65.326c1.976 1.912 3.171 4.227 3.171 6.977s-1.195 5.699-3.171 7.611c-85.769 85.769-204.076 138.897-334.876 138.897zM512 373.411c-79.598 0-151.42-32.818-203.589-84.987-1.976-1.912-3.171-4.227-3.171-6.977s1.195-5.699 3.171-7.611l65.326-64.692c3.913-3.704 10.040-3.704 13.953 0 31.762 31.762 75.84 51.373 124.31 51.373s92.548-19.611 124.31-51.373c3.913-3.704 10.040-3.704 13.953 0l65.326 64.692c1.976 1.912 3.171 4.861 3.171 7.611s-1.195 5.065-3.171 6.977c-52.169 52.169-123.991 84.987-203.589 84.987zM512 187.58c-28.447 0-53.788-11.929-72.303-30.443-3.704-3.913-3.704-10.040 0-13.953l65.326-65.326c3.913-3.704 10.040-3.704 13.953 0l65.326 65.326c3.704 3.913 3.704 10.040 0 13.953-18.514 18.514-43.855 30.443-72.303 30.443z" />
<glyph unicode="&#xe909;" glyph-name="aumix" d="M174.596 917.333c-41.123 0-74.386-32.006-74.386-71.912v-49.031h-26.386c-17.245 0-31.158-13.229-31.158-29.963v-199.937c0-16.735 13.913-30.236 31.158-30.236h26.386v-485.677c0-39.905 33.263-71.912 74.386-71.912s74.105 32.006 74.105 71.912v485.677h26.386c17.245 0 31.158 13.501 31.158 30.236v199.937c0 16.735-13.913 29.963-31.158 29.963h-26.386v49.031c0 39.906-32.983 71.912-74.105 71.912zM512 917.333c-41.123 0-74.105-32.006-74.105-71.912v-420.575h-26.386c-17.245 0-31.158-13.501-31.158-30.236v-199.937c0-16.735 13.913-30.236 31.158-30.236h26.386v-113.86c0-39.905 32.983-71.912 74.105-71.912s74.386 32.006 74.386 71.912v113.86h26.386c17.245 0 31.158 13.501 31.158 30.236v199.937c0 16.735-13.913 30.236-31.158 30.236h-26.386v420.575c0 39.906-33.263 71.912-74.386 71.912zM849.684 917.333c-41.123 0-74.105-32.006-74.105-71.912v-169.701h-26.386c-17.245 0-31.158-13.501-31.158-30.236v-199.937c0-16.735 13.913-30.236 31.158-30.236h26.386v-364.735c0-39.905 32.983-71.912 74.105-71.912s74.386 32.006 74.386 71.912v364.735h26.105c17.245 0 31.158 13.501 31.158 30.236v199.937c0 16.735-13.913 30.236-31.158 30.236h-26.105v169.701c0 39.906-33.263 71.912-74.386 71.912z" />
<glyph unicode="&#xe90a;" glyph-name="audio-headphones" d="M981.333 247.467c0 51.2-19.2 96-51.2 132.267v96c0 232.533-187.733 418.133-418.133 418.133s-418.133-185.6-418.133-418.133v-93.867c-32-34.133-51.2-81.067-51.2-130.133 0-89.6 59.733-166.4 142.933-187.733v-6.4c0-29.867 23.467-53.333 51.2-53.333s51.2 23.467 51.2 53.333v388.267c0 27.733-23.467 51.2-51.2 51.2-12.8 0-23.467-4.267-32-12.8 4.267 166.4 140.8 300.8 307.2 300.8 168.533 0 305.067-136.533 307.2-302.933-8.533 6.4-19.2 10.667-32 10.667-27.733 0-51.2-23.467-51.2-51.2v-388.267c0-27.733 23.467-51.2 51.2-51.2s51.2 23.467 51.2 51.2v6.4c83.2 23.467 142.933 98.133 142.933 187.733z" />
<glyph unicode="&#xe90b;" glyph-name="gnome-do-symbolic" d="M424 917.333v-128.333c-32.496-8.342-61.668-21.817-89.833-38.5l-91.667 91.667-124.667-124.667 91.667-91.667c-16.683-28.165-30.158-57.338-38.5-89.833h-128.333v-176h128.333c8.342-32.496 21.817-61.668 38.5-89.833l-91.667-91.667 124.667-124.667 91.667 91.667c28.165-16.683 57.338-30.158 89.833-38.5v-128.333h176v128.333c32.496 8.342 61.668 21.817 89.833 38.5l91.667-91.667 124.667 124.667-91.667 91.667c16.683 28.165 30.158 57.338 38.5 89.833h128.333v176h-128.333c-8.342 32.496-21.817 61.668-38.5 89.833l91.667 91.667-124.667 124.667-91.667-91.667c-28.165 16.683-57.338 30.158-89.833 38.5v128.333h-176zM512 565.333c64.768 0 117.333-52.565 117.333-117.333s-52.565-117.333-117.333-117.333c-64.768 0-117.333 52.565-117.333 117.333s52.565 117.333 117.333 117.333z" />
<glyph unicode="&#xe90c;" glyph-name="file-manager" d="M64 810.667v-746.667h896v672h-410.667v74.667h-485.333zM101.333 773.333h410.667v-74.666h410.667v-74.667h-485.334v74.667h-336v74.666z" />
<glyph unicode="&#xe90d;" glyph-name="arts" d="M807.246 842.435l-38.899-38.899c97.255-95.236 158.145-227.551 158.145-374.319s-60.889-279.083-158.145-374.319l38.899-38.899c107.239 105.23 174.087 251.218 174.087 413.217s-66.848 307.987-174.087 413.217zM429.101 788.232l-248.058-248.696h-138.377v-220.638h138.377l248.058-248.696v718.029zM689.913 725.101l-38.899-38.899c67.281-65.246 109.681-155.933 109.681-256.986s-42.4-191.74-109.681-256.985l38.899-38.899c77.26 75.242 125.623 179.603 125.623 295.884s-48.363 220.642-125.623 295.884zM573.217 608.406l-39.536-39.536c37.246-35.235 61.217-84.373 61.217-139.652s-23.971-104.417-61.217-139.652l39.536-39.536c47.285 45.244 77.159 108.627 77.159 179.188s-29.874 133.944-77.159 179.188z" />
<glyph unicode="&#xe90e;" glyph-name="folder_home" d="M64 810.667v-746.667h896v672h-410.667v74.667h-485.333zM101.333 773.333h410.667v-74.667h410.667v-74.667h-485.333v74.667h-336v74.667zM497.333 568l228-236.667-45.333 0.667 2.667-190-354.667-0.667-1.333 189.333h-52l222.667 237.333z" />
<glyph unicode="&#xe90f;" glyph-name="yast_soundcard" d="M62.464 838.912c-10.795 0-19.584-8.768-19.584-19.541 0-10.795 8.789-19.584 19.584-19.584h58.624v-156.373h-58.624c-10.795 0-19.584-8.747-19.584-19.413v-156.373c0-10.88 8.789-19.627 19.584-19.627h58.624v-39.040h-58.624c-10.795 0-19.584-8.747-19.584-19.627v-156.373c0-10.667 8.789-19.627 19.584-19.627h58.624v-136.747c0-10.88 8.768-19.413 19.541-19.413 10.795 0 19.541 8.533 19.541 19.413v97.707h78.336v-58.667c0-10.667 8.533-19.413 19.413-19.413h351.787c10.88 0 19.627 8.747 19.627 19.413v58.667h39.040v-58.667c0-10.667 8.747-19.413 19.627-19.413h195.413c10.88 0 19.413 8.747 19.413 19.413v58.667h19.627c32.213 0 58.667 26.24 58.667 58.667v391.040c0 32.213-26.453 58.453-58.667 58.453h-762.283v136.917c0 10.773-8.747 19.541-19.541 19.541h-78.165zM160.171 643.413h762.283c10.88 0 19.627-8.747 19.627-19.413v-391.040c0-10.667-8.747-19.627-19.627-19.627h-762.283v430.080zM841.813 571.947l-166.4-48v-137.387c-7.253 4.48-15.573 7.040-24.747 7.040-26.24 0-47.573-21.333-47.573-47.573s21.333-47.573 47.573-47.573c26.24 0 47.573 21.333 47.573 47.573v128.213l120.96 34.773v-81.493c-7.040 4.48-15.573 7.253-24.747 7.253-26.24 0-47.573-21.333-47.573-47.573 0-26.453 21.333-47.787 47.573-47.787 24.747 0 45.013 18.987 47.36 43.307v189.227zM264.747 571.733c-8.96 0-16.213-8.747-16.213-19.413 0-10.88 7.253-19.627 16.213-19.627h225.92c8.96 0 16.213 8.747 16.213 19.627 0 10.667-7.253 19.413-16.213 19.413h-225.92zM264.747 493.653c-8.96 0-16.213-8.747-16.213-19.413 0-10.88 7.253-19.627 16.213-19.627h225.92c8.96 0 16.213 8.747 16.213 19.627 0 10.667-7.253 19.413-16.213 19.413h-225.92zM264.747 415.573c-8.96 0-16.213-8.96-16.213-19.627 0-10.88 7.253-19.627 16.213-19.627h225.92c8.96 0 16.213 8.747 16.213 19.627 0 10.667-7.253 19.627-16.213 19.627h-225.92zM264.747 337.28c-8.96 0-16.213-8.747-16.213-19.627s7.253-19.413 16.213-19.413h225.92c8.96 0 16.213 8.533 16.213 19.413s-7.253 19.627-16.213 19.627h-225.92z" />
<glyph unicode="&#xe910;" glyph-name="headphones" d="M288 384h-64v-448h64c17.6 0 32 14.4 32 32v384c0 17.6-14.4 32-32 32zM736 384c-17.602 0-32-14.4-32-32v-384c0-17.6 14.398-32 32-32h64v448h-64zM1024 448c0 282.77-229.23 512-512 512s-512-229.23-512-512c0-61.412 10.83-120.29 30.656-174.848-19.478-33.206-30.656-71.87-30.656-113.152 0-112.846 83.448-206.188 192-221.716v443.418c-31.914-4.566-61.664-15.842-87.754-32.378-5.392 26.718-8.246 54.364-8.246 82.676 0 229.75 186.25 416 416 416s416-186.25 416-416c0-28.314-2.83-55.968-8.22-82.696-26.1 16.546-55.854 27.848-87.78 32.418v-443.44c108.548 15.532 192 108.874 192 221.714 0 41.274-11.178 79.934-30.648 113.138 19.828 54.566 30.648 113.452 30.648 174.866z" />
<glyph unicode="&#xe911;" glyph-name="lxterminal" d="M119.333 746.667c-18.152 0-34-13.286-34-31.333v-534.667c0-18.048 15.848-31.333 34-31.333h785.333c18.152 0 34 13.286 34 31.333v534.667c0 18.048-15.848 31.333-34 31.333h-785.333zM119.333 725.333h785.333c8.043 0 12.667-4.921 12.667-10v-534.667c0-5.079-4.624-10-12.667-10h-785.333c-8.043 0-12.667 4.921-12.667 10v534.667c0 5.079 4.624 10 12.667 10zM150.667 704c-12.501 0-22.667-10.165-22.667-22.667v-466.667c0-12.501 10.165-22.667 22.667-22.667h722.667c12.501 0 22.667 10.165 22.667 22.667v466.667c0 12.501-10.165 22.667-22.667 22.667h-722.667zM363.333 663.333h9.333v-22c5.812-0.25 11.229-1 16.667-2 5.437-0.938 10.812-2.313 16-4v-16c-5.188 2.625-10.5 4.562-16 6-5.438 1.437-10.917 2.417-16.667 2.667v-40c14.187-2.188 24.646-6.375 31.333-12s10-12.917 10-22.667c0-10.563-3.542-19.208-10.667-25.333-7.063-6.063-17.292-9.729-30.667-10.667v-28h-9.333l-0.667 28c-6.563 0.125-12.771 0.625-19.333 2-6.563 1.438-13.375 3.854-20 6.667v16.667c6.375-4 12.833-6.604 19.333-8.667 6.562-2 13.729-3.271 20.667-3.333v42.667c-13.813 2.25-24.354 5.958-30.667 11.333-6.25 5.375-9.333 12.625-9.333 22 0 10.187 3.854 18.792 10.667 24.667s16.583 9.125 29.333 10v22zM363.333 628c-7.25-0.813-12.854-2.688-16.667-6s-6-7.833-6-13.333c0-5.375 1.833-9.667 5.333-12.667 3.562-3 9.521-5.354 17.333-6.667v38.667zM287.333 594v-16.667c-6.563-4.938-13.042-8.542-18.667-10.667-5.563-2.125-11.271-3.333-17.333-3.333-6.875 0-14.875 1.646-24 5.333-0.688 0.25-1.021 0.542-1.333 0.667-0.438 0.187-1.063 0.354-2 0.667-9.688 3.875-17.458 6-23.333 6-5.5 0-11.292-0.896-16.667-3.333-5.375-2.375-10.542-6.146-16.667-11.333v16.667c6.562 4.937 12.437 8.542 18 10.667 5.625 2.187 11.271 3.333 17.333 3.333 6.875 0 14.812-2.25 24-6 0.625-0.25 1.021-0.542 1.333-0.667 0.5-0.188 1.125-0.354 2-0.667 9.687-3.875 17.458-6 23.333-6 5.375 0 10.75 1.625 16 4 5.312 2.375 11.562 6.083 18 11.333zM372.667 571.333v-40.667c7.937 1.062 13.333 3.896 17.333 7.333 4.062 3.437 6.667 7.708 6.667 13.333 0 5.5-2.125 10.083-6 13.333-3.813 3.25-9.688 5.167-18 6.667z" />
<glyph unicode="&#xe912;" glyph-name="mpv" d="M512 917.333c-259.204-0.004-469.33-210.129-469.333-469.333v-0.001c0.004-259.204 210.129-469.33 469.333-469.333h0.001c259.204 0.004 469.33 210.129 469.333 469.333v0.001c-0.004 259.204-210.129 469.33-469.333 469.333h-0.001zM539.083 854.167c207.102 0 375.251-168.189 375.251-375.291 0-207.1-168.149-375.251-375.251-375.251-207.1 0-375.291 168.151-375.291 375.251 0 207.102 168.191 375.291 375.291 375.291zM539.083 827.042c-192.439 0-348.166-155.727-348.166-348.166s155.727-348.166 348.166-348.166c192.442 0 348.126 155.727 348.126 348.166s-155.684 348.166-348.126 348.166zM492.209 662.793c128.337-0.006 232.373-104.046 232.373-232.384 0-0.012 0-0.024 0-0.036v0.002c-0.029-128.316-104.054-232.327-232.372-232.333h-0.001c-0.010 0-0.022 0-0.034 0-128.324 0-232.355 104.013-232.384 232.33v0.003c0 0.010 0 0.022 0 0.034 0 128.342 104.042 232.384 232.384 232.384 0.012 0 0.024 0 0.036 0h-0.002zM409.792 563.917v-265.417l213.626 136.083-213.626 129.333z" />
<glyph unicode="&#xe913;" glyph-name="gksu-root-terminal" d="M155.111 875.431c-62.244 0-112.444-48.47-112.444-108.778v-603.778c0-60.308 50.201-108.778 112.444-108.778h713.778c62.244 0 112.444 48.47 112.444 108.778v603.778c0 60.308-50.201 108.778-112.444 108.778h-713.778zM206.444 784.376h611.111c39.954 0 72.111-31.884 72.111-71.5v-496.222c0-39.616-32.157-71.5-72.111-71.5h-611.111c-39.954 0-72.111 31.884-72.111 71.5v496.222c0 39.616 32.157 71.5 72.111 71.5zM306.667 681.098l-24.444-129.556h-92.889v-53.778h81.889l-11-53.778h-94.111v-53.778h84.333l-26.278-137.5h70.889l27.5 137.5h70.889l-26.278-137.5h70.889l27.5 137.5h84.333v53.778h-74.556l11 53.778h86.778v53.778h-77l25.056 129.556h-71.5l-24.444-129.556h-72.111l24.444 129.556h-70.889zM343.333 497.765h70.889l-11-53.778h-70.889l11 53.778zM535.833 327.876v-114.278h282.944v114.278h-282.944z" />
<glyph unicode="&#xe914;" glyph-name="awesome" d="M85.333 874.667h853.333v-853.333h-234.667v277.333h-384v-64h320v-213.333h-554.667v554.667h618.667v64h-618.667z" />
<glyph unicode="&#xe915;" glyph-name="drive-multidisk" d="M222.293 917.461c-22.741 0-43.221-16.683-45.461-37.013l-74.24-270.315c0 0-0.427-2.133-0.427-2.347v-74.453c0-19.2 7.637-36.693 19.755-49.707l-19.328-112.213c0 0-0.469 0-0.469-3.84v-74.453c0-18.987 7.637-36.48 19.755-50.133l-19.328-111.787c0 0-0.427 0-0.427-3.84v-74.453c0-40.96 33.408-74.24 74.411-74.24h670.187c40.96 0 74.24 33.28 74.24 74.24v78.293l-19.413 111.787c12.373 13.653 19.84 31.147 19.84 50.133v78.293l-19.413 112.213c12.373 13.013 19.84 30.507 19.84 49.707l-0.853 74.667v2.347l-74.667 270.101c-2.347 20.331-22.613 37.013-45.44 37.013h-578.56zM176.576 645.12h670.144c20.267 0 36.907-16.64 36.907-37.12v-74.453c0-20.48-16.64-37.12-36.907-37.12h-670.144c-20.437 0-37.205 16.64-37.205 37.12v74.453c0 20.48 16.768 37.12 37.205 37.12zM219.733 597.333c-14.736-0.012-26.682-11.936-26.731-26.662v-0.005c0.048-14.731 11.995-26.655 26.73-26.667h0.001c14.708 0.048 26.618 11.959 26.667 26.662v0.005c-0.048 14.708-11.959 26.618-26.662 26.667h-0.005zM176.576 406.4h670.144c20.267 0 36.907-16.64 36.907-36.907v-74.88c0-20.267-16.64-36.907-36.907-36.907h-670.144c-20.437 0-37.205 16.64-37.205 36.907v74.88c0 20.267 16.768 36.907 37.205 36.907zM219.733 358.827c-14.736-0.012-26.682-11.936-26.731-26.662v-0.005c0.048-14.731 11.995-26.655 26.73-26.667h0.001c14.708 0.048 26.618 11.959 26.667 26.662v0.005c-0.048 14.708-11.959 26.618-26.662 26.667h-0.005zM176.576 167.893h670.144c20.267 0 36.907-16.64 36.907-36.907v-74.88c0-20.267-16.64-36.907-36.907-36.907h-670.144c-20.437 0-37.205 16.64-37.205 36.907v74.88c0 20.267 16.768 36.907 37.205 36.907zM219.733 120.107c-14.736-0.012-26.682-11.936-26.731-26.662v-0.005c0.048-14.731 11.995-26.655 26.73-26.667h0.001c14.708 0.048 26.618 11.959 26.667 26.662v0.005c-0.048 14.708-11.959 26.618-26.662 26.667h-0.005z" />
<glyph unicode="&#xe916;" glyph-name="gnome-amusements" d="M494.667 909.447c-95.654-0.473-171.665-34.312-229.333-87.333s-97.74-124.769-125.333-202.667c-55.186-155.795-60.057-335.185-50.667-438 4.759-52.11 19.212-97.911 40-132.667s47.747-59.118 77.333-67.333c29.587-8.216 61.459 1.646 86 31.333 20.578 24.894 35.784 66.898 46.667 120.667 37.149-74.878 89.106-136.871 148.667-151.333 33.325-8.092 68.886 0.428 100 28.667 27.072 24.57 50.748 66.991 72 124 11.412-26.276 26.977-53.196 47.333-77.333 26.43-31.339 57.716-57.427 90.667-68.667s68.893-4.981 94 27.333c25.107 32.314 40.896 87.462 44.667 176.667 7.485 177.071-6.786 355.485-71.333 490.667s-180.854 226.94-370.667 226zM324.667 665.447c74.242 0 132.667-71.739 132.667-158s-58.425-158.667-132.667-158.667c-74.242 0-132.667 72.406-132.667 158.667s58.425 158 132.667 158zM649.333 662.114c74.242 0 132.667-72.406 132.667-158.667s-58.425-158-132.667-158c-74.242 0-132.667 71.739-132.667 158s58.425 158.667 132.667 158.667zM690.667 554.78c-21.712 0-39.333-25.984-39.333-58s17.621-58 39.333-58c21.712 0 39.333 25.984 39.333 58s-17.621 58-39.333 58zM368.667 554.114c-21.712 0-39.333-25.984-39.333-58s17.621-58 39.333-58c21.712 0 39.333 25.984 39.333 58s-17.621 58-39.333 58z" />
<glyph unicode="&#xe917;" glyph-name="gksu-root-terminal1" d="M155.111 875.431c-62.244 0-112.444-48.47-112.444-108.778v-603.778c0-60.308 50.201-108.778 112.444-108.778h713.778c62.244 0 112.444 48.47 112.444 108.778v603.778c0 60.308-50.201 108.778-112.444 108.778h-713.778zM206.444 784.376h611.111c39.954 0 72.111-31.884 72.111-71.5v-496.222c0-39.616-32.157-71.5-72.111-71.5h-611.111c-39.954 0-72.111 31.884-72.111 71.5v496.222c0 39.616 32.157 71.5 72.111 71.5zM306.667 681.098l-24.444-129.556h-92.889v-53.778h81.889l-11-53.778h-94.111v-53.778h84.333l-26.278-137.5h70.889l27.5 137.5h70.889l-26.278-137.5h70.889l27.5 137.5h84.333v53.778h-74.556l11 53.778h86.778v53.778h-77l25.056 129.556h-71.5l-24.444-129.556h-72.111l24.444 129.556h-70.889zM343.333 497.765h70.889l-11-53.778h-70.889l11 53.778zM535.833 327.876v-114.278h282.944v114.278h-282.944z" />
<glyph unicode="&#xe918;" glyph-name="firefox" d="M186.057 864.679c-50.64-40.026-60.19-109.705-55.397-170.148-69.807-63.963-87.993-253.347-87.993-253.347s25.109 71.32 30.392 74.355c-2.325-117.556 11.941-149.514 41.189-209.32 37.804-77.303 117.348-187.598 266.61-237.761 116.901-37.699 249.281-24.771 358.497 30.519 125.809 64.824 191.014 160.98 225.49 246.252 47.015 193.257-0.476 439.76-220.956 524.32 127.712-165.947 174.708-315.838 96.41-495.971 10.098 85.219-18.457 196.784-50.415 301.3-20.464-265.29-54.755-384.748-163.669-396.365s-184.606 27.923-235.715 65.83c39.063 1.587 79.756-3.472 117.423 7.623 35.625 20.285 73.107 47.164 108.782 59.645-17.694 48.415-73.611 37.839-108.962 17.315-48.58-19.404-116.26-11.438-140.728 40.411-33.678 40.51 15.801 85.115 58.438 64.279 2.684 33.709-25.368 68.48 22.662 79.17 18.384 13.124 80.338 47.515 49.905 64.106-39.785-1.939-98.401 2.375-108.839 49.954-8.517 30.203 41.564 70.324 36.751 76.193-37.352 0.033-66.588-33.841-95.378-44.566-34.981 16.794-75.158-0.797-110.509 5.808-14.934 31.887-26.262 65.792-33.986 100.398z" />
<glyph unicode="&#xe919;" glyph-name="battery-080" d="M116.72 685.69c-40.599 0-74.053-33.455-74.053-74.053v-345.583c0-40.599 33.455-74.053 74.053-74.053h691.165c40.599 0 74.053 33.455 74.053 74.053v74.053c6.669-0.213 11.976-0.262 20.056 0 15.538 0.502 34.499 3.841 50.912 16.971 18.347 14.23 26.093 35.351 27.77 52.455 1.615 16.47-0.296 29.729 0 40.112 0.075 0.511-0.060 1.031 0 1.543 4.887 40.526-22.998 83.335-67.882 86.396h-1.543c-9.932 0.030-19.383-0.023-29.313 0v74.053c0 40.599-33.455 74.053-74.053 74.053h-691.165zM635.094 636.321h172.791c14.102 0 24.684-10.582 24.684-24.684v-345.583c0-14.102-10.582-24.684-24.684-24.684h-172.791v391.866c0 1.073 0.060 2.035 0 3.086zM881.939 488.214c9.399-0.023 18.372 0.028 27.77 0 13.577-0.926 23.653-17.821 21.599-32.398v-1.543c-0.698-15.862 0.984-30.077 0-40.112s-2.003-14.084-7.714-18.513h-1.543c-5.234-4.187-10.973-5.828-21.599-6.171-4.904-0.158-12.365-0.211-18.513 0v98.738z" />
<glyph unicode="&#xe91a;" glyph-name="battery-100" d="M116.72 685.69c-40.599 0-74.053-33.455-74.053-74.053v-345.583c0-40.599 33.455-74.053 74.053-74.053h691.165c40.599 0 74.053 33.455 74.053 74.053v74.053c6.669-0.213 11.976-0.262 20.056 0 15.538 0.502 34.499 3.841 50.912 16.971 18.347 14.23 26.093 35.351 27.77 52.455 1.615 16.47-0.296 29.729 0 40.112 0.075 0.511-0.060 1.031 0 1.543 4.887 40.526-22.998 83.335-67.882 86.396h-1.543c-9.932 0.030-19.383-0.023-29.313 0v74.053c0 40.599-33.455 74.053-74.053 74.053h-691.165zM881.939 488.214c9.399-0.023 18.372 0.028 27.77 0 13.577-0.926 23.653-17.821 21.599-32.398v-1.543c-0.698-15.862 0.984-30.077 0-40.112s-2.003-14.084-7.714-18.513h-1.543c-5.234-4.187-10.973-5.828-21.599-6.171-4.904-0.158-12.365-0.211-18.513 0v98.738z" />
<glyph unicode="&#xe91b;" glyph-name="connection" horiz-adv-x="1280" d="M640 384c105.87 0 201.87-43.066 271.402-112.598l-90.468-90.468c-46.354 46.356-110.356 75.066-180.934 75.066s-134.578-28.71-180.934-75.066l-90.468 90.468c69.532 69.532 165.532 112.598 271.402 112.598zM187.452 452.548c120.88 120.88 281.598 187.452 452.548 187.452s331.668-66.572 452.55-187.452l-90.51-90.508c-96.706 96.704-225.28 149.96-362.040 149.96-136.762 0-265.334-53.256-362.038-149.962l-90.51 90.51zM988.784 825.562c106.702-45.132 202.516-109.728 284.782-191.996v0l-90.508-90.508c-145.056 145.056-337.92 224.942-543.058 224.942-205.14 0-398-79.886-543.058-224.942l-90.51 90.51c82.268 82.266 178.082 146.862 284.784 191.994 110.504 46.738 227.852 70.438 348.784 70.438s238.278-23.7 348.784-70.438zM576 64c0 35.346 28.654 64 64 64s64-28.654 64-64c0-35.346-28.654-64-64-64s-64 28.654-64 64z" />
<glyph unicode="&#xe91c;" glyph-name="applications-engineering" d="M424.747 917.12l-10.88-66.88c-41.173-10.005-80-26.133-116.053-48.107l-55.467 39.573-123.691-123.627 39.552-55.253c-21.995-36.267-38.123-75.093-48.171-115.84l-67.157-11.307v-174.933l67.029-11.093c9.984-40.96 26.091-79.787 48-115.84l-39.616-55.467 123.627-123.733 55.253 39.467c36.267-21.973 75.093-38.187 116.053-48.213l11.093-66.987h174.933l11.093 66.773c40.96 10.027 80 26.027 116.267 48l55.040-39.467 123.733 123.733-39.253 54.827c22.187 36.267 38.187 75.307 48.213 116.48l66.773 11.093v174.933l-66.56 10.88c-10.027 41.387-26.24 80.213-48.213 116.48l39.467 55.040-123.733 123.691-55.040-39.339c-36.267 22.037-75.093 38.208-116.267 48.235l-11.093 66.88h-174.933zM512 779.669c182.827 0 331.733-148.843 331.733-331.669s-148.907-331.733-331.733-331.733c-182.827 0-331.669 148.907-331.669 331.733s148.843 331.669 331.669 331.669zM512 704c-141.227 0-256-114.56-256-255.787 0-94.933 52.053-177.92 129.067-222.293v109.44l-52.907 50.987v87.253h50.987v-65.493l52.693-50.987v-153.387c16.427-4.907 33.493-8.747 50.773-10.24v259.627c-43.733 11.093-76.373 50.987-76.373 98.347 0 56.107 45.653 101.547 101.76 101.547 55.893 0 101.547-45.44 101.547-101.547 0-47.36-32.427-87.040-75.947-98.347v-259.413c17.28 1.28 34.133 5.12 50.347 10.027v153.387l52.907 50.987v65.493h50.773v-87.253l-52.693-50.987v-109.44c76.8 44.373 128.853 127.36 128.853 222.293 0 141.227-114.773 255.787-255.787 255.787zM512 602.453c-27.947 0-50.987-22.827-50.987-50.987 0-27.947 23.040-50.987 50.987-50.987s50.773 23.040 50.773 50.987c0 28.16-22.827 50.987-50.773 50.987z" />
<glyph unicode="&#xe91d;" glyph-name="noun_cog-skull_1502117" horiz-adv-x="819" d="M507.904 551.703l-0.344-5.014-1.024-4.932-1.688-4.735-2.31-4.473-2.9-4.112-3.432-3.67-3.908-3.178-4.301-2.613-4.612-2.007-4.841-1.36-4.989-0.68h-5.030l-4.989 0.68-4.841 1.36-4.612 2.007-4.301 2.613-3.899 3.178-3.441 3.67-2.9 4.112-2.31 4.473-1.688 4.735-1.024 4.932-0.344 5.014 0.344 5.022 1.024 4.923 1.688 4.743 2.31 4.465 2.9 4.112 3.441 3.678 3.899 3.178 4.301 2.613 4.612 1.999 4.841 1.36 4.989 0.688h5.030l4.989-0.688 4.841-1.36 4.612-1.999 4.301-2.613 3.908-3.178 3.432-3.678 2.9-4.112 2.31-4.465 1.688-4.743 1.024-4.923 0.344-5.022zM311.296 551.703l0.344 5.022 1.024 4.923 1.688 4.743 2.31 4.465 2.9 4.112 3.441 3.678 3.899 3.178 4.301 2.613 4.612 1.999 4.841 1.36 4.989 0.688h5.030l4.989-0.688 4.841-1.36 4.612-1.999 4.301-2.613 3.908-3.178 3.432-3.678 2.9-4.112 2.31-4.465 1.688-4.743 1.024-4.923 0.344-5.022-0.344-5.014-1.024-4.932-1.688-4.735-2.31-4.473-2.9-4.112-3.432-3.67-3.908-3.178-4.301-2.613-4.612-2.007-4.841-1.36-4.989-0.68h-5.030l-4.989 0.68-4.841 1.36-4.612 2.007-4.301 2.613-3.899 3.178-3.441 3.67-2.9 4.112-2.31 4.473-1.688 4.735-1.024 4.932-0.344 5.014zM428.245 477.549l0.745-2.253 0.066-2.376-0.614-2.294-1.245-2.015-1.778-1.573-2.146-1.008-2.351-0.344h-22.643l-2.351 0.344-2.146 1.008-1.778 1.573-1.245 2.015-0.614 2.294 0.066 2.376 0.745 2.253 11.321 22.643 1.278 1.86 1.737 1.442 2.073 0.909 2.236 0.311 2.236-0.311 2.073-0.909 1.737-1.442 1.278-1.86 11.321-22.643zM272.908 693.015l-5.956-8.282-5.448-8.626-4.932-8.937-4.391-9.208-3.834-9.454-3.269-9.658-2.695-9.847-2.097-9.986-1.507-10.084-0.909-10.166-0.303-10.199 0.311-11.362 0.926-11.338 1.54-11.264 2.154-11.166 2.761-11.026 3.351-10.871 3.94-10.666 4.514-10.437 5.079-10.174 1.491-3.334 1.008-3.506 0.508-3.621v-3.654l-0.508-3.613-1.008-3.514-1.491-3.334 0.303-3.842 0.901-3.752 1.475-3.564 2.015-3.285 2.507-2.933 2.933-2.507 3.285-2.015 3.564-1.475 3.752-0.901 3.842-0.303h28.008l2.54-0.262 2.433-0.786 2.212-1.27 1.909-1.696 1.507-2.056 1.057-2.327 18.973-56.926 1.057-2.327 1.516-2.056 1.901-1.704 2.22-1.27 2.425-0.778 2.54-0.27h1.384v49.152l0.279 1.024 0.745 0.754 1.024 0.27 1.024-0.27 0.754-0.754 0.27-1.024v-49.152h20.48v49.152l0.279 1.024 0.745 0.754 1.024 0.27 1.024-0.27 0.754-0.754 0.27-1.024v-49.152h20.48v49.152l0.279 1.024 0.745 0.754 1.024 0.27 1.024-0.27 0.754-0.754 0.27-1.024v-49.152h20.48v49.152l0.279 1.024 0.745 0.754 1.024 0.27 1.024-0.27 0.754-0.754 0.27-1.024v-49.152h20.48v49.152l0.279 1.024 0.745 0.754 1.024 0.27 1.024-0.27 0.754-0.754 0.27-1.024v-49.152h1.384l2.54 0.27 2.433 0.778 2.212 1.27 1.909 1.704 1.507 2.056 1.057 2.327 18.973 56.926 1.057 2.327 1.516 2.056 1.901 1.696 2.22 1.27 2.425 0.786 2.54 0.262h28.008l3.842 0.303 3.752 0.901 3.564 1.475 3.285 2.015 2.933 2.507 2.507 2.933 2.015 3.285 1.475 3.564 0.901 3.752 0.303 3.842-1.491 3.334-1.008 3.514-0.508 3.613v3.654l0.508 3.621 1.008 3.506 1.491 3.334 5.079 10.174 4.514 10.437 3.94 10.666 3.351 10.871 2.761 11.026 2.154 11.166 1.54 11.264 0.926 11.338 0.311 11.362-0.303 10.199-0.909 10.166-1.507 10.084-2.097 9.986-2.695 9.847-3.269 9.658-3.834 9.454-4.391 9.208-4.932 8.937-5.448 8.626-5.956 8.282 7.873-8.053 7.389-8.495 6.898-8.905 6.373-9.29 5.825-9.634 5.267-9.953 4.694-10.232 4.096-10.494 3.49-10.707 2.875-10.887 2.236-11.035 1.614-11.149 0.967-11.215 0.319-11.264-0.344-11.641-1.032-11.608-1.72-11.526-2.4-11.403-3.072-11.239-3.736-11.043-4.375-10.797-5.014-10.519-5.628-10.199-6.218-9.855-6.791-9.47-7.348-9.044-7.864-8.602-8.356-8.118-8.831-7.602-9.257-7.070-9.667-6.513-10.035-5.923-10.363-5.325-10.666-4.694-10.928-4.055-11.141-3.408-11.321-2.736-11.469-2.064-11.575-1.376-11.633-0.688h-11.649l-11.633 0.688-11.575 1.376-11.461 2.064-11.33 2.736-11.141 3.408-10.928 4.055-10.666 4.694-10.363 5.325-10.035 5.923-9.658 6.513-9.265 7.070-8.831 7.602-8.356 8.118-7.864 8.602-7.34 9.044-6.799 9.47-6.218 9.855-5.628 10.199-5.005 10.519-4.383 10.797-3.736 11.043-3.072 11.239-2.4 11.403-1.72 11.526-1.032 11.608-0.344 11.641 0.319 11.264 0.967 11.215 1.614 11.149 2.236 11.035 2.875 10.887 3.49 10.707 4.096 10.494 4.694 10.232 5.267 9.953 5.833 9.634 6.365 9.29 6.898 8.905 7.389 8.495 7.873 8.053zM611.787 590.615l-2.621 11.477-3.277 11.305-3.916 11.1-4.547 10.863-5.161 10.584-5.751 10.273-6.332 9.929-6.889 9.552-7.422 9.142-7.93 8.7-8.413 8.233-8.872 7.741-9.298 7.225-9.699 6.685-10.060 6.111-10.396 5.53-10.691 4.932-10.953 4.309-11.182 3.678-11.379 3.031-11.534 2.376-11.649 1.72-11.723 1.049-11.772 0.377-11.772-0.295-11.731-0.967-11.657-1.63-11.551-2.294-11.395-2.949-11.207-3.596-10.985-4.235-10.723-4.85-10.437-5.456-10.101-6.046-9.74-6.611-9.347-7.152-8.929-7.676-8.471-8.176-7.995-8.643-7.487-9.085-6.955-9.503-6.398-9.88-5.825-10.232-5.235-10.551-4.62-10.83-3.998-11.076-3.359-11.289-2.703-11.461-2.048-11.592-1.384-11.69-0.713-11.747-0.041-11.772 0.631-11.756 1.303-11.698 1.966-11.608 2.63-11.477 3.277-11.305 3.916-11.1 4.547-10.863 5.161-10.584 5.751-10.273 6.332-9.929 6.889-9.552 7.422-9.142 7.93-8.7 8.413-8.233 8.872-7.741 9.298-7.225 9.699-6.676 10.060-6.119 10.396-5.53 10.691-4.932 10.953-4.309 11.182-3.678 11.379-3.031 11.534-2.376 11.649-1.72 11.723-1.049 11.764-0.377 11.772 0.295 11.731 0.967 11.657 1.638 11.551 2.294 11.395 2.949 11.207 3.596 10.985 4.235 10.723 4.85 10.437 5.456 10.101 6.046 9.74 6.611 9.347 7.16 8.929 7.676 8.471 8.176 7.995 8.643 7.487 9.085 6.955 9.503 6.398 9.88 5.825 10.232 5.235 10.543 4.62 10.83 3.998 11.076 3.359 11.289 2.703 11.461 2.048 11.592 1.384 11.69 0.713 11.756 0.041 11.772-0.631 11.756-1.303 11.698-1.966 11.592zM94.134 464.343l-2.818 11.084-2.425 11.174-2.032 11.256-1.638 11.321 35.561 17.539-0.729 11.829-0.254 11.854 0.246 11.854 0.729 11.837-35.561 17.539 1.638 11.321 2.032 11.256 2.425 11.174 2.818 11.084 39.559 2.597 3.858 11.215 4.309 11.043 4.76 10.854 5.202 10.65-26.141 29.811 5.849 9.83 6.185 9.617 6.521 9.396 6.84 9.167 37.544-12.747 7.856 8.88 8.208 8.552 8.552 8.208 8.88 7.856-12.747 37.544 9.167 6.84 9.396 6.521 9.617 6.185 9.83 5.849 29.811-26.141 10.65 5.202 10.854 4.76 11.043 4.309 11.207 3.858 2.597 39.567 11.084 2.818 11.174 2.425 11.256 2.032 11.321 1.638 17.539-35.561 11.829 0.729 11.862 0.229 11.854-0.246 11.829-0.729 17.539 35.561 11.321-1.638 11.256-2.032 11.174-2.425 11.084-2.818 2.597-39.567 11.207-3.858 11.043-4.309 10.854-4.76 10.65-5.202 29.811 26.141 9.83-5.849 9.617-6.185 9.396-6.521 9.167-6.84-12.747-37.544 8.88-7.856 8.552-8.208 8.208-8.552 7.856-8.88 37.544 12.747 6.84-9.167 6.521-9.396 6.185-9.617 5.849-9.83-26.141-29.811 5.202-10.65 4.76-10.854 4.309-11.043 3.858-11.215 39.567-2.597 2.818-11.084 2.425-11.174 2.032-11.256 1.638-11.321-35.561-17.539 0.729-11.837 0.246-11.837-0.246-11.854-0.729-11.829 35.561-17.539-1.638-11.321-2.032-11.256-2.425-11.174-2.818-11.084-39.567-2.597-3.858-11.207-4.309-11.043-4.76-10.854-5.202-10.658 26.141-29.811-5.849-9.83-6.185-9.617-6.521-9.396-6.84-9.159-37.544 12.747-7.856-8.88-8.208-8.552-8.552-8.208-8.88-7.856 12.747-37.544-9.167-6.84-9.396-6.521-9.617-6.185-9.83-5.849-29.811 26.141-10.65-5.202-10.854-4.76-11.043-4.309-11.207-3.858-2.597-39.559-11.084-2.818-11.174-2.425-11.256-2.032-11.321-1.638-17.539 35.561-11.829-0.729-11.854-0.254-11.854 0.246-11.829 0.729-17.539-35.561-11.321 1.638-11.256 2.032-11.174 2.425-11.084 2.818-2.597 39.559-11.207 3.858-11.043 4.309-10.854 4.76-10.65 5.202-29.811-26.141-9.83 5.849-9.617 6.185-9.396 6.521-9.167 6.84 12.747 37.544-8.88 7.856-8.552 8.208-8.208 8.552-7.856 8.88-37.544-12.747-6.84 9.159-6.521 9.396-6.185 9.617-5.849 9.83 26.141 29.811-5.202 10.658-4.76 10.854-4.309 11.043-3.858 11.207-39.559 2.605z" />
<glyph unicode="&#xe91e;" glyph-name="noun_Skull_963094" horiz-adv-x="819" d="M745.914 627.708c0 189.702-150.577 291.332-336.314 291.332s-336.314-101.63-336.314-291.332c0-94.47 37.364-180.011 97.796-242.106-20.374-20.955-38.126-44.573-52.691-70.287 14.205-25.092 31.449-45.875 51.175-62.996 1.196 1.016 2.376 2.007 3.572 3.047 4.342 3.441 8.094 7.782 12.231 11.731 4.153 3.973 7.668 8.593 11.518 12.837 3.899 4.219 7.102 8.897 10.51 13.23 3.375 4.358 6.611 8.626 9.355 12.902 2.851 4.227 5.546 8.217 8.045 11.919 2.556 3.678 4.448 7.291 6.382 10.371 1.86 3.121 3.498 5.849 4.841 8.086 2.679 4.506 4.219 7.078 4.219 7.078s-0.926-2.843-2.548-7.823c-0.819-2.49-1.81-5.53-2.957-8.995-1.196-3.457-2.286-7.479-3.981-11.674-1.647-4.219-3.416-8.79-5.292-13.64-1.778-4.915-4.047-9.921-6.472-15.098-2.449-5.161-4.661-10.699-7.676-15.95-2.966-5.284-5.571-10.92-8.995-16.146-3.432-5.21-6.431-10.756-10.33-15.671-0.549-0.754-1.114-1.483-1.671-2.245 21.979-15.147 46.432-26.608 72.81-35.021 1.040 2.023 2.097 4.096 3.17 6.193 2.384 4.563 4.776 9.347 6.963 14.328 2.277 4.973 4.579 10.019 6.881 15.065 4.719 10.084 8.569 20.554 12.657 30.237 1.933 4.874 4.039 9.527 5.603 14.074 1.655 4.522 3.228 8.806 4.669 12.755 5.792 15.876 9.658 26.452 9.658 26.452s-1.278-11.198-3.187-28.008c-0.483-4.219-1.008-8.79-1.565-13.623-0.467-4.85-1.425-9.88-2.163-15.147-1.712-10.486-3.056-21.807-5.317-32.997-1.098-5.62-2.187-11.231-3.252-16.761-0.999-5.562-2.245-10.994-3.555-16.245-0.352-1.475-0.696-2.9-1.040-4.35 31.547-7.152 65.331-10.666 100.54-11.477l16.409 138.617 16.409-138.609c35.209 0.811 68.993 4.317 100.54 11.477-0.344 1.475-0.68 2.843-1.040 4.35-1.311 5.251-2.556 10.691-3.555 16.245-1.073 5.53-2.163 11.141-3.252 16.761-2.261 11.19-3.596 22.512-5.317 32.997-0.745 5.276-1.696 10.297-2.163 15.147-0.549 4.833-1.081 9.404-1.565 13.623-1.917 16.81-3.187 28.008-3.187 28.008s3.867-10.576 9.658-26.452c1.45-3.949 3.023-8.233 4.669-12.755 1.565-4.547 3.67-9.2 5.603-14.074 4.088-9.683 7.946-20.161 12.657-30.237 2.31-5.046 4.604-10.093 6.881-15.065 2.187-4.989 4.579-9.765 6.963-14.328 1.073-2.097 2.13-4.17 3.162-6.193 26.386 8.413 50.831 19.882 72.819 35.021-0.557 0.754-1.122 1.483-1.671 2.245-3.899 4.915-6.898 10.461-10.33 15.671-3.424 5.218-6.038 10.863-8.995 16.146-3.015 5.251-5.235 10.789-7.676 15.95-2.425 5.177-4.686 10.183-6.472 15.098-1.876 4.841-3.654 9.421-5.292 13.64-1.696 4.186-2.785 8.208-3.981 11.674-1.147 3.473-2.13 6.513-2.949 8.995-1.622 4.973-2.548 7.823-2.548 7.823s1.54-2.572 4.227-7.078c1.343-2.245 2.974-4.964 4.833-8.086 1.933-3.080 3.826-6.693 6.382-10.371 2.499-3.695 5.194-7.684 8.045-11.919 2.736-4.268 5.972-8.536 9.355-12.902 3.416-4.334 6.611-9.011 10.51-13.23 3.85-4.252 7.365-8.864 11.518-12.837 4.137-3.949 7.889-8.29 12.231-11.731 1.196-1.040 2.384-2.040 3.572-3.047 19.718 17.129 36.97 37.904 51.175 62.996-14.565 25.715-32.326 49.332-52.691 70.287 60.432 62.087 97.788 147.628 97.788 242.098zM293.478 528.224c-14.033 8.094-30.278 12.796-47.653 12.796s-33.612-4.702-47.645-12.796c-28.647 16.523-47.972 47.383-47.972 82.829 0 52.814 42.82 95.625 95.625 95.625s95.625-42.811 95.625-95.625c-0.008-35.447-19.333-66.306-47.981-82.829zM409.6 381.112l-47.456 82.215c0 0 7.037 18.956 47.456 18.956 38.912 0 47.456-18.956 47.456-18.956l-47.456-82.215zM621.027 528.224c-14.041 8.094-30.278 12.796-47.653 12.796s-33.612-4.702-47.645-12.796c-28.639 16.523-47.972 47.383-47.972 82.829 0 52.814 42.82 95.625 95.625 95.625s95.625-42.811 95.625-95.625c-0.008-35.447-19.333-66.306-47.981-82.829z" />
<glyph unicode="&#xe91f;" glyph-name="gnome-netstatus-75-100" d="M377.507 917.333c-14.128 0-25.507-11.258-25.507-24.997v-888.672c0-13.739 11.379-24.997 25.507-24.997h316.29c14.128 0 25.507 11.258 25.507 24.997v888.672c0 13.739-11.379 24.997-25.507 24.997h-316.29zM384.649 909.171h302.006c13.5 0 24.487-10.986 24.487-24.487v-873.368c0-13.5-10.986-24.487-24.487-24.487h-302.006c-13.5 0-24.487 10.986-24.487 24.487v873.368c0 13.5 10.986 24.487 24.487 24.487zM384.649 901.009c-8.979 0-16.325-7.346-16.325-16.325v-204.058h334.655v204.058c0 8.979-7.346 16.325-16.325 16.325h-302.006zM368.325 672.464v-220.383h334.655v220.383h-334.655zM368.325 443.919v-220.383h334.655v220.383h-334.655zM368.325 215.374v-204.058c0-8.979 7.346-16.325 16.325-16.325h302.006c8.979 0 16.325 7.346 16.325 16.325v204.058h-334.655z" />
<glyph unicode="&#xe920;" glyph-name="gnome-netstatus-25-49" d="M377.507 917.333c-14.128 0-25.507-11.258-25.507-24.997v-888.672c0-13.739 11.379-24.997 25.507-24.997h316.29c14.128 0 25.507 11.258 25.507 24.997v888.672c0 13.739-11.379 24.997-25.507 24.997h-316.29zM384.649 909.171h302.006c13.5 0 24.487-10.986 24.487-24.487v-873.368c0-13.5-10.986-24.487-24.487-24.487h-302.006c-13.5 0-24.487 10.986-24.487 24.487v873.368c0 13.5 10.986 24.487 24.487 24.487zM368.325 443.919v-220.383h334.655v220.383h-334.655zM368.325 215.374v-204.058c0-8.979 7.346-16.325 16.325-16.325h302.006c8.979 0 16.325 7.346 16.325 16.325v204.058h-334.655z" />
<glyph unicode="&#xe921;" glyph-name="weather-clear" d="M506.19 916.999c-2.595-0.368-4.835-0.832-7.024-1.422l0.406 0.093c-25.985-6.156-45.030-29.269-45.030-56.854 0-0.568 0.008-1.135 0.024-1.699l-0.002 0.083v-58.47c-0.071-1.079-0.111-2.339-0.111-3.609 0-32.218 25.979-58.336 58.025-58.336s58.025 26.118 58.025 58.336c0 1.27-0.040 2.53-0.12 3.779l0.009-0.17v58.47c0.018 0.536 0.028 1.166 0.028 1.798 0 32.218-25.979 58.336-58.025 58.336-2.186 0-4.343-0.121-6.466-0.358l0.261 0.024zM218.937 797.401c-29.555-2.954-52.447-27.822-52.447-58.065 0-16.62 6.913-31.616 18.006-42.242l0.024-0.022 32.432-33.222c10.719-12.922 26.739-21.085 44.655-21.085 32.046 0 58.025 26.118 58.025 58.336 0 18.148-8.243 34.36-21.17 45.059l-0.1 0.080-32.432 32.557c-10.635 11.557-25.799 18.769-42.638 18.769-1.533 0-3.051-0.060-4.554-0.177l0.199 0.012zM798.737 797.401c-15.738-0.798-29.713-7.785-39.679-18.568l-0.033-0.036-29.122-29.235c-13.86-10.769-22.699-27.486-22.699-46.279 0-32.218 25.979-58.336 58.025-58.336 18.723 0 35.375 8.915 45.984 22.753l0.1 0.136 29.122 29.235c10.961 10.627 17.768 25.52 17.768 42.012 0 32.218-25.979 58.336-58.025 58.336-0.507 0-1.012-0.007-1.515-0.020l0.074 0.002zM512.147 682.454c-128.172 0-231.655-104.358-231.655-233.216s103.483-233.881 231.655-233.881c128.172 0 232.317 105.022 232.317 233.881s-104.145 233.216-232.317 233.216zM95.167 507.043c-29.587-2.966-52.501-27.863-52.501-58.14 0-32.26 26.013-58.412 58.101-58.412 1.99 0 3.957 0.101 5.896 0.297l-0.244-0.020h58.245c1.429-0.126 3.093-0.198 4.773-0.198 32.046 0 58.025 26.118 58.025 58.336s-25.979 58.336-58.025 58.336c-1.68 0-3.343-0.072-4.987-0.212l0.214 0.015h-58.245c-0.79 0.039-1.716 0.061-2.647 0.061s-1.857-0.022-2.778-0.066l0.13 0.005c-0.89 0.049-1.931 0.077-2.978 0.077s-2.089-0.028-3.123-0.083l0.144 0.006zM854.996 507.043c-28.743-3.81-50.698-28.287-50.698-57.92 0-31.511 24.827-57.193 55.888-58.353l0.105-0.003h58.245c1.429-0.126 3.093-0.198 4.773-0.198 32.046 0 58.025 26.118 58.025 58.336s-25.979 58.336-58.025 58.336c-1.68 0-3.343-0.072-4.987-0.212l0.214 0.015h-58.245c-0.79 0.039-1.716 0.061-2.647 0.061s-1.857-0.022-2.778-0.066l0.13 0.005zM766.967 252.565c-2.239-0.135-4.286-0.371-6.298-0.712l0.341 0.048c-29.555-2.954-52.447-27.822-52.447-58.065 0-16.62 6.913-31.616 18.006-42.242l0.024-0.022 32.432-32.557c10.71-13.974 27.362-22.889 46.085-22.889 32.046 0 58.025 26.118 58.025 58.336 0 18.793-8.839 35.51-22.565 46.179l-0.134 0.1-32.432 33.222c-10.3 11.119-24.808 18.179-40.96 18.603l-0.076 0.002zM248.060 248.579c-13.753-2.142-25.657-8.87-34.373-18.554l-0.044-0.050-29.122-29.235c-13.86-10.769-22.699-27.486-22.699-46.279 0-32.218 25.979-58.336 58.025-58.336 18.723 0 35.374 8.915 45.984 22.753l0.1 0.136 29.122 29.235c11.228 10.662 18.218 25.732 18.218 42.443 0 32.218-25.979 58.336-58.025 58.336-2.533 0-5.028-0.163-7.475-0.48l0.29 0.031zM512.147 158.88c-0.077 0-0.168 0.001-0.259 0.001-4.364 0-8.615-0.484-12.704-1.402l0.387 0.073c-25.985-6.156-45.030-29.269-45.030-56.854 0-0.568 0.008-1.135 0.024-1.699l-0.002 0.083v-58.47c-0.071-1.079-0.111-2.339-0.111-3.609 0-32.218 25.979-58.336 58.025-58.336s58.025 26.118 58.025 58.336c0 1.27-0.040 2.53-0.12 3.779l0.009-0.17v58.47c0.012 0.436 0.018 0.949 0.018 1.464 0 32.218-25.979 58.336-58.025 58.336-0.084 0-0.167 0-0.251-0.001h0.013z" />
<glyph unicode="&#xe922;" glyph-name="weather-clear-night" d="M588.804 295.43c5.56 153.653-89.81 196.724-115.933 219.92-92.167 81.864 134.069 421.468 12.741 401.104-121.321-20.364-233.558-90.799-305.021-191.421-71.455-100.622-101.266-230.193-81.008-352.131s90.343-234.74 190.458-306.565 229.032-101.783 350.352-81.42c121.329 20.364 233.558 90.799 305.021 191.421 71.471 100.622-336.351-2.849-356.609 119.091v0z" />
<glyph unicode="&#xe923;" glyph-name="weather-clouds-night" d="M442.691 916.523c-111.892-18.781-213.645-85.301-279.553-178.102-65.901-92.801-93.081-212.181-74.397-324.642 5.73-34.492 15.459-67.137 29.308-99.196 3.113 2.083 5.846 4.762 9.018 6.763 0 52.403 28.863 97.073 65.379 123.995s82.517 40.58 130.759 40.58c21.155 0 38.798-10.38 58.616-15.781 22.519 21.477 48.861 39.364 76.652 54.107-11.554 8.947-21.030 17.196-27.054 22.545-85.004 75.502 123.171 388.513 11.272 369.732zM586.977 483.666c-81.255 0-150.114-37.199-187.12-92.433-20.838 13-47.448 20.29-76.652 20.29-66.371 0-121.741-40.4-121.741-90.178 0-11.179 4.052-21.681 9.018-31.562-75.486-25.296-128.504-82.569-128.504-148.794 0-89.926 96.527-162.321 216.428-162.321h432.857c119.901 0 216.428 72.395 216.428 162.321 0 71.229-61.771 131.337-146.54 153.303 0.188 3.081 2.254 5.898 2.254 9.018 0 99.557-96.96 180.357-216.428 180.357z" />
<glyph unicode="&#xe924;" glyph-name="weather-showers" d="M646.667 917.333c-75.361 0-139.678-40.29-174-98.667-19.327 13.74-44.248 22.667-71.333 22.667-61.557 0-111.333-42.722-111.333-95.333 0-11.816 2.061-22.889 6.667-33.333-70.010-26.736-118-87.338-118-157.333 0-95.044 89.462-172 200.667-172h401.333c111.204 0 200.667 76.956 200.667 172 0 75.283-56.713 138.784-135.333 162 0.175 3.257 1.333 6.035 1.333 9.333 0 105.223-89.864 190.667-200.667 190.667zM209.333 317.333c-0.643-0.3-1.080-0.522-1.511-0.754l0.178 0.087c-11.248-1.697-20.531-8.773-25.246-18.468l-0.087-0.199-134-266.667c-3.613-5.248-5.771-11.738-5.771-18.731 0-18.425 14.98-33.362 33.458-33.362 13.922 0 25.857 8.478 30.897 20.539l0.082 0.221 134 266.667c3.117 4.974 4.965 11.016 4.965 17.488 0 18.425-14.98 33.362-33.458 33.362-1.235 0-2.455-0.067-3.656-0.197l0.149 0.013zM340.667 317.333c-0.643-0.3-1.080-0.522-1.511-0.754l0.178 0.087c-11.248-1.697-20.531-8.773-25.246-18.468l-0.087-0.199-133.333-266.667c-2.412-4.549-3.828-9.943-3.828-15.667 0-18.812 15.294-34.063 34.161-34.063 13.126 0 24.524 7.382 30.244 18.21l0.090 0.186 133.333 266.667c3.234 5.043 5.155 11.194 5.155 17.792 0 18.425-14.98 33.362-33.458 33.362-2.013 0-3.984-0.177-5.899-0.517l0.202 0.030zM476.667 317.333c-0.643-0.3-1.080-0.522-1.511-0.754l0.178 0.087c-11.248-1.697-20.531-8.773-25.246-18.468l-0.087-0.199-133.333-266.667c-4.449-5.612-7.136-12.791-7.136-20.595 0-18.425 14.98-33.362 33.458-33.362 14.623 0 27.055 9.354 31.606 22.389l0.071 0.234 134 266.667c3.117 4.974 4.965 11.016 4.965 17.488 0 18.425-14.98 33.362-33.458 33.362-1.235 0-2.455-0.067-3.656-0.197l0.149 0.013zM608 317.333c-0.227-0.221-0.444-0.438-0.659-0.658l-0.008-0.008c-11.248-1.697-20.531-8.773-25.246-18.468l-0.087-0.199-134-266.667c-2.412-4.549-3.828-9.943-3.828-15.667 0-18.812 15.294-34.063 34.161-34.063 13.126 0 24.524 7.382 30.244 18.21l0.090 0.186 134 266.667c3.289 5.074 5.243 11.275 5.243 17.931 0 18.425-14.98 33.362-33.458 33.362-2.283 0-4.512-0.228-6.666-0.662l0.215 0.036zM744.667 317.333c-0.911-0.269-1.575-0.496-2.23-0.743l0.23 0.076c-10.98-1.907-19.986-8.93-24.58-18.466l-0.087-0.2-134-266.667c-3.613-5.248-5.771-11.738-5.771-18.731 0-18.425 14.98-33.362 33.458-33.362 13.922 0 25.857 8.478 30.897 20.539l0.082 0.221 134 266.667c3.117 4.974 4.965 11.016 4.965 17.488 0 18.425-14.98 33.362-33.458 33.362-1.235 0-2.455-0.067-3.656-0.197l0.149 0.013zM876 317.333c-0.643-0.3-1.080-0.522-1.511-0.754l0.178 0.087c-11.248-1.697-20.531-8.773-25.246-18.468l-0.087-0.199-133.333-266.667c-2.412-4.549-3.828-9.943-3.828-15.667 0-18.812 15.294-34.063 34.161-34.063 13.126 0 24.524 7.382 30.244 18.21l0.090 0.186 133.333 266.667c3.234 5.043 5.155 11.194 5.155 17.792 0 18.425-14.98 33.362-33.458 33.362-2.013 0-3.984-0.177-5.899-0.517l0.202 0.030z" />
<glyph unicode="&#xe925;" glyph-name="drawing-1" horiz-adv-x="724" d="M-44.586 541.49h813.165c43.786 0 79.279-35.495 79.279-79.279v-28.417c0-43.786-35.495-79.279-79.279-79.279h-813.165c-43.786 0-79.279 35.495-79.279 79.279v28.417c0 43.786 35.495 79.279 79.279 79.279z" />
<glyph unicode="&#xe930;" glyph-name="folder-open" d="M832 0l192 512h-832l-192-512zM128 576l-128-576v832h288l128-128h416v-128z" />
<glyph unicode="&#xe951;" glyph-name="bell" d="M1025.5 160c0 288-256 224-256 448 0 18.56-1.788 34.42-5.048 47.928-16.83 113.018-92.156 203.72-189.772 231.36 0.866 3.948 1.32 8.032 1.32 12.21 0 33.278-28.8 60.502-64 60.502s-64-27.224-64-60.5c0-4.18 0.456-8.264 1.32-12.21-109.47-30.998-190.914-141.298-193.254-273.442-0.040-1.92-0.066-3.864-0.066-5.846 0-224.002-256-160.002-256-448.002 0-76.226 170.59-139.996 398.97-156.080 21.524-40.404 64.056-67.92 113.030-67.92s91.508 27.516 113.030 67.92c228.38 16.084 398.97 79.854 398.97 156.080 0 0.228-0.026 0.456-0.028 0.682l1.528-0.682zM826.246 105.904c-54.23-14.47-118.158-24.876-186.768-30.648-5.704 65.418-60.582 116.744-127.478 116.744s-121.774-51.326-127.478-116.744c-68.608 5.772-132.538 16.178-186.768 30.648-74.63 19.914-110.31 42.19-123.368 54.096 13.058 11.906 48.738 34.182 123.368 54.096 86.772 23.152 198.372 35.904 314.246 35.904s227.474-12.752 314.246-35.904c74.63-19.914 110.31-42.19 123.368-54.096-13.058-11.906-48.738-34.182-123.368-54.096z" />
<glyph unicode="&#xea94;" glyph-name="spotify" d="M512 960c-281.6 0-512-230.4-512-512s230.4-512 512-512 512 230.4 512 512-227.8 512-512 512zM747.6 220.2c-10.2-15.4-28.2-20.4-43.6-10.2-120.4 74.2-271.4 89.6-450.6 48.6-18-5.2-33.2 7.6-38.4 23-5.2 18 7.6 33.2 23 38.4 194.6 43.6 363.6 25.6 496.6-56.4 18-7.6 20.6-28 13-43.4zM809 361c-12.8-18-35.8-25.6-53.8-12.8-138.2 84.4-348.2 110-509.4 58.8-20.4-5.2-43.6 5.2-48.6 25.6-5.2 20.4 5.2 43.6 25.6 48.6 186.8 56.4 417.2 28.2 576-69.2 15.2-7.6 23-33.2 10.2-51zM814 504.4c-163.8 97.2-437.8 107.6-594 58.8-25.6-7.6-51.2 7.6-58.8 30.8-7.6 25.6 7.6 51.2 30.8 58.8 181.8 53.8 481.2 43.6 670.8-69.2 23-12.8 30.8-43.6 18-66.6-13-17.8-43.6-25.4-66.8-12.6z" />
</font>
</defs>
</svg>
